<svg width="19" height="19" viewBox="0 0 19 19" fill="none" xmlns="http://www.w3.org/2000/svg">
<path d="M8.7085 3.16668H5.3835C4.05337 3.16668 3.38831 3.16668 2.88027 3.42554C2.43338 3.65324 2.07005 4.01657 1.84236 4.46346C1.5835 4.9715 1.5835 5.63656 1.5835 6.96668V13.6167C1.5835 14.9468 1.5835 15.6119 1.84236 16.1199C2.07005 16.5668 2.43338 16.9301 2.88027 17.1578C3.38831 17.4167 4.05337 17.4167 5.3835 17.4167H12.0335C13.3636 17.4167 14.0287 17.4167 14.5367 17.1578C14.9836 16.9301 15.3469 16.5668 15.5746 16.1199C15.8335 15.6119 15.8335 14.9468 15.8335 13.6167V10.2917M6.33348 12.6667H7.65916C8.04642 12.6667 8.24006 12.6667 8.42228 12.6229C8.58384 12.5841 8.73828 12.5202 8.87995 12.4334C9.03973 12.3354 9.17665 12.1985 9.45049 11.9247L17.021 4.35418C17.6768 3.69835 17.6768 2.63502 17.021 1.97918C16.3652 1.32335 15.3018 1.32334 14.646 1.97918L7.07547 9.54969C6.80163 9.82353 6.66471 9.96045 6.5668 10.1202C6.47998 10.2619 6.41601 10.4163 6.37722 10.5779C6.33347 10.7601 6.33348 10.9538 6.33348 11.341V12.6667Z" stroke="#5A5A63" stroke-width="2" stroke-linecap="round" stroke-linejoin="round"/>
</svg>
