<svg width="16" height="12" viewBox="0 0 16 12" fill="none" xmlns="http://www.w3.org/2000/svg">
<path d="M6.59984 0.826765C7.05872 0.719351 7.52855 0.665657 7.99984 0.666765C12.6665 0.666765 15.3332 6.0001 15.3332 6.0001C14.9285 6.75717 14.4459 7.46992 13.8932 8.12676M9.41317 7.41343C9.23007 7.60993 9.00927 7.76754 8.76394 7.87685C8.51861 7.98616 8.25377 8.04494 7.98523 8.04968C7.71669 8.05441 7.44995 8.00501 7.20091 7.90443C6.95188 7.80384 6.72565 7.65412 6.53573 7.4642C6.34582 7.27428 6.1961 7.04806 6.09551 6.79902C5.99492 6.54999 5.94552 6.28325 5.95026 6.0147C5.955 5.74616 6.01378 5.48133 6.12309 5.236C6.2324 4.99067 6.39001 4.76986 6.5865 4.58677M11.9598 9.9601C10.8202 10.8288 9.43258 11.31 7.99984 11.3334C3.33317 11.3334 0.666504 6.0001 0.666504 6.0001C1.49576 4.4547 2.64593 3.1045 4.03984 2.0401L11.9598 9.9601Z" stroke="black" stroke-width="1.2" stroke-linecap="round" stroke-linejoin="round"/>
</svg>
