<svg width="28" height="28" viewBox="0 0 28 28" fill="none" xmlns="http://www.w3.org/2000/svg">
<path d="M18.3854 15.5391C18.2997 15.6143 18.236 15.7114 18.2011 15.8199C18.1662 15.9284 18.1613 16.0444 18.1869 16.1555L19.2432 20.7289C19.2711 20.8484 19.2632 20.9734 19.2206 21.0884C19.178 21.2034 19.1024 21.3034 19.0034 21.3757C18.9043 21.4481 18.7862 21.4898 18.6637 21.4955C18.5411 21.5012 18.4196 21.4707 18.3143 21.4078L14.3221 18.986C14.2251 18.927 14.1137 18.8958 14.0002 18.8958C13.8867 18.8958 13.7753 18.927 13.6783 18.986L9.68616 21.4078C9.58082 21.4707 9.45932 21.5012 9.33678 21.4955C9.21425 21.4898 9.0961 21.4481 8.99706 21.3757C8.89803 21.3034 8.82248 21.2034 8.77983 21.0884C8.73719 20.9734 8.72934 20.8484 8.75725 20.7289L9.8135 16.1555C9.83918 16.0444 9.83428 15.9284 9.79934 15.8199C9.76441 15.7114 9.70072 15.6143 9.61506 15.5391L6.09084 12.4649C5.99662 12.3848 5.92828 12.2785 5.89445 12.1596C5.86062 12.0407 5.86283 11.9144 5.9008 11.7967C5.93878 11.679 6.0108 11.5753 6.10776 11.4985C6.20473 11.4218 6.32228 11.3755 6.44553 11.3656L11.0908 10.9641C11.2042 10.954 11.3126 10.9131 11.4044 10.846C11.4963 10.7788 11.568 10.6878 11.6119 10.5828L13.4268 6.25782C13.4753 6.146 13.5554 6.0508 13.6572 5.98392C13.7591 5.91704 13.8783 5.88141 14.0002 5.88141C14.1221 5.88141 14.2413 5.91704 14.3432 5.98392C14.4451 6.0508 14.5252 6.146 14.5737 6.25782L16.3885 10.5828C16.4324 10.6878 16.5042 10.7788 16.596 10.846C16.6878 10.9131 16.7963 10.954 16.9096 10.9641L21.5549 11.3656C21.6782 11.3755 21.7957 11.4218 21.8927 11.4985C21.9896 11.5753 22.0617 11.679 22.0996 11.7967C22.1376 11.9144 22.1398 12.0407 22.106 12.1596C22.0722 12.2785 22.0038 12.3848 21.9096 12.4649L18.3854 15.5391Z" fill="#1C1C1C" fill-opacity="0.1"/>
<path d="M22.6875 11.6008C22.6118 11.3675 22.4692 11.1616 22.2773 11.0088C22.0855 10.856 21.8529 10.763 21.6086 10.7414L16.9688 10.3414L15.15 6.01643C15.0553 5.78949 14.8956 5.59564 14.691 5.45929C14.4863 5.32294 14.2459 5.25018 14 5.25018C13.7541 5.25018 13.5137 5.32294 13.3091 5.45929C13.1044 5.59564 12.9447 5.78949 12.85 6.01643L11.0367 10.3414L6.39142 10.7438C6.14614 10.7644 5.9124 10.857 5.71952 11.0099C5.52663 11.1628 5.38319 11.3693 5.30718 11.6034C5.23117 11.8375 5.22598 12.0889 5.29225 12.3259C5.35852 12.563 5.49331 12.7752 5.6797 12.936L9.20392 16.0157L8.14767 20.5891C8.09182 20.8284 8.10776 21.0789 8.19349 21.3092C8.27923 21.5396 8.43095 21.7395 8.6297 21.8841C8.82845 22.0286 9.0654 22.1114 9.31093 22.122C9.55647 22.1326 9.79968 22.0706 10.0102 21.9438L13.9945 19.5219L17.9875 21.9438C18.198 22.0706 18.4412 22.1326 18.6868 22.122C18.9323 22.1114 19.1692 22.0286 19.368 21.8841C19.5667 21.7395 19.7185 21.5396 19.8042 21.3092C19.8899 21.0789 19.9059 20.8284 19.85 20.5891L18.7945 16.011L22.318 12.936C22.5044 12.7746 22.6389 12.5618 22.7046 12.3243C22.7704 12.0867 22.7644 11.835 22.6875 11.6008ZM21.4985 11.9914L17.975 15.0664C17.8035 15.2156 17.676 15.4087 17.606 15.625C17.5361 15.8412 17.5265 16.0724 17.5781 16.2938L18.6367 20.875L14.6469 18.4532C14.4522 18.3346 14.2287 18.2719 14.0008 18.2719C13.7729 18.2719 13.5494 18.3346 13.3547 18.4532L9.37033 20.875L10.4219 16.2969C10.4736 16.0756 10.4639 15.8443 10.394 15.6281C10.3241 15.4118 10.1965 15.2187 10.025 15.0696L6.50002 11.9961C6.49973 11.9938 6.49973 11.9914 6.50002 11.9891L11.1438 11.5875C11.3705 11.5675 11.5874 11.486 11.7712 11.3518C11.955 11.2176 12.0987 11.0357 12.1867 10.8258L14 6.50628L15.8125 10.8258C15.9005 11.0357 16.0442 11.2176 16.228 11.3518C16.4118 11.486 16.6288 11.5675 16.8555 11.5875L21.5 11.9891C21.5 11.9891 21.5 11.9938 21.5 11.9946L21.4985 11.9914Z" fill="#1C1C1C"/>
</svg>
